<svg xmlns="http://www.w3.org/2000/svg" width="173" height="154" viewBox="0 0 173 154">
  <path fill-rule="evenodd" fill="#fff" d="M150.654,150.631c0.3-7.107,3.6-12.254.517-18.973-3.548-7.745-14.639-6.658-20.528-9.25-10.21-4.5-25.1-19.636-24.659-29.66,2.011,1.253,1.29,2.383,7.129,3.061,18.512,2.154,31.2,9.55,38,29.289-0.178-12.055-8.414-30.386-18.166-39.452-13.348,6.263-23.983,4.124-35.357,4.277,10.07-5.947,22.351-7.191,31.926-7.13-10.27-3.733-24.368-2.73-30.793-13.875,9.626,0.714,20.238,5.526,27.821,8.116l0-.006c-3.108-1.229-4.836-3.539-6.512-6.318a27.034,27.034,0,0,0-8.449-4.167c-8.354-1.857-15.43-1.311-19.861,4.171A4.015,4.015,0,0,1,90.6,73.408c0.55,1.645,2.577,3.918,3.166,6.147,0.28,1.06,1.879,1.1,1.857,2.86-0.042,3.132-3.129,3.329-3.807,1.978-0.971-1.942,1.012-3.09.9-4.36a10.358,10.358,0,0,0-2.507-5.769,62.958,62.958,0,0,1-3.363,9.9c-0.511,1.026-.019,3.005-0.693,4.105-0.917,1.5-3.3.691-3.755-.823-0.751-2.5,2.629-2.1,3.458-3.452,1.758-2.851,3.02-5.94,2.53-9.466a10.389,10.389,0,0,0-3.684,3.157c-0.564.64,0.008,1.972-.842,3-0.648.78-2.84,0.678-2.867-.743-0.046-2.282,2.07-1.939,3-2.849,1.542-1.512,3.6-2.9,4.3-4.021-4.247-.185-8.687.484-11.058,4.542-0.4.687,0.452,1.733-.428,3.628a1.364,1.364,0,0,1-2.393-.085c-0.9-1.367,1.6-2.7,2.237-3.814,2.6-4.529,7.544-4.911,12-5.108,1.134-1.639,1.958-2,2.409-1.894a24.8,24.8,0,0,1,7.026-5.112A92.55,92.55,0,0,0,75.468,70c-1.425,1.992-2.984,1.192-4.369,1.872a20.928,20.928,0,0,1-9.562,8.165c-1.431.633-1.738,2.508-3.144,1.8a1.435,1.435,0,0,1-.542-2.2c1.459-.981,2.043.316,3.178-0.091,3.361-1.206,6.106-3.677,8.664-6.854-1.339-.1-2.977.765-4.5,1.3-0.825.284-1.192,1.694-2.389,1.233a1.087,1.087,0,0,1-.272-2.041c1.086-.59,1.2.381,2.246,0.232A6.7,6.7,0,0,0,69.45,70.77c-4.939.4-9.165-.944-13.672-0.13a2.314,2.314,0,0,1-1.842,1.989,1.5,1.5,0,0,1-.974-2.461c0.9-1.1,1.527.016,3.129-.216,4-.584,9.461.66,13.295-0.13a9.7,9.7,0,0,0-5.72-3.171c-1.406-.306-1.322,1.51-2.661.317-0.917-.812-0.572-1.888.279-2.061,1.282-.257,1.678.784,2.527,1.061A22.772,22.772,0,0,1,70.183,69c-0.505-4.879-7.863-8.246-12.986-7.616-1.034.128-1.482,1.336-2.17,1.98-1.514,1.415-2.933-.858-2.224-1.774,1.1-1.422,1.79-.567,3.178-0.59,4.871-2.07,13.78,2.852,15.485,7.478,1.329,0.21,2.7-.664,3.687.488a98.437,98.437,0,0,1,24.4-4.989,80.531,80.531,0,0,0-8.573-3.941c-1.446.267-2.337-.446-3.2-0.782-2.683,1.121-4.685,3.479-7.8,4.134-0.621.133-1.117,1.319-2.4,1.2a1.587,1.587,0,0,1-.844-2.572c1.3-1.215,2.139-.017,3.157.652A19.408,19.408,0,0,0,87.246,58.3a5.093,5.093,0,0,0-1.464-1.539c-2.031-1.441-5.108-1.886-7.359-1.961-0.919-.031-2.371,1-3.47.888a1.353,1.353,0,0,1-.42-2.483c1.259-.957,2.013.688,3.8,0.926A29.363,29.363,0,0,1,87.3,56.392c-1.065-2.289-4.654-5.751-7.723-7.192-0.936-.437-1.746.95-3.548-0.436l0,0a9.894,9.894,0,0,1-.926.488c-7.038,3.163-21.7,3.807-26.634-1.057,1.575-.452,1.819.44,4.874-2.244,9.687-8.509,19.361-11.6,32.631-5.968-6.261-5.485-19.474-9.734-28.642-8.92-2.98,9.75-9.006,14.222-14.2,20.133,1.621-7.921,6.678-14.8,11.149-19.69C47.6,35.049,41.574,42.752,32.883,40.9c4.837-4.62,12.241-7.846,17.084-10.545-4.012,2.012-7.691-.525-13.256-0.607C32.6,29.684,27.837,33.4,22.8,33.16c-10.2-.487-17.25-6.753-21.769-14.221,11.584,1.867,19.724-3.341,29.358,1.555,4.862,2.47,7.126,10.863,15.384,8.313-6.265-2.4-9.455-6.156-13.4-9.462-2.344-1.964-5.2-3.362-6.776-6.01,5.2,0.11,9.6,3.471,12.674,5.909-1.932-3.517-5.541-6.064-5.02-11C38,11.962,43.627,17.772,46.065,23.009c0.931,2,.978,4.909,3.043,5.853,4.144,1.893,7.732-1.292,14.04.816-4.216-6.068-13.008-6.52-16.787-12.468-2.972-4.679-3.6-9.687-4.647-15.519C51.735,7.3,66.555,12.97,66.469,25.108c-0.014,1.946-1.446,3.33-.372,4.518a60.644,60.644,0,0,1,8.426,1.414A40.859,40.859,0,0,1,67.1,5.543c3.3,3.5,5.605,8.117,7.547,12.516,0.125-2.447-.553-5.461.521-7.419,4.188,5.3,7.1,11.972,6.847,19.045A19.976,19.976,0,0,1,80.86,34,65.916,65.916,0,0,1,92,41.857c-3.914-9.3-3.311-19.347-.559-28.505,9.215,14.266,22.685,17.962,26.761,33.072,2.057,7.626-4.755,18.207,5.978,24.609-3.494-9.064-2.551-16.141-2.823-23.591-0.162-4.427-1.431-8.859-.112-13.12,4.921,5.7,5.572,13.691,5.933,19.362,1.9-5.492,1.141-11.844,6.942-16.075,0.612,8.717-.173,20.409-3.432,28.113-1.243,2.941-4.321,5.816-3.334,8.954,1.982,6.293,8.874,7.058,12.721,15.886,2.428-10.423-5.6-20.315-2.878-30.152,2.143-7.738,6.913-13.269,12.152-20.062C153.04,56.564,161.3,78.006,148.194,89.7c-2.1,1.875-4.975,1.679-5.21,3.987a87.634,87.634,0,0,1,6.642,10.432c2.736-12.2,9.074-23.236,20.174-32.734-0.556,6.945-3.282,13.907-6.122,20.264,2.747-2.24,5.324-5.9,8.465-6.641-1.632,9.648-5.971,19.255-13.806,25.851-1.646,1.385-3.829,1.961-5.745,2.942a93.846,93.846,0,0,1,1.835,30.687c-0.237,1.942-.347,4.347-0.691,6.3C153.2,152,150.5,151.981,150.654,150.631ZM102.827,88.56c7.678,0.3,17.93,1.206,28.549-3.425C123.005,82.734,113.238,84.656,102.827,88.56ZM35.757,39.565c5.507,0.751,10.921-3.631,14.964-7.333C45.476,31.938,40.61,37.268,35.757,39.565ZM8.013,24.167c4.562,7.216,20.036,8.694,25.1,3.355C24.168,25.4,17.649,27.486,8.013,24.167Zm24.843,1.187C29.125,20.117,13.7,18.954,7.47,21.5,16.151,25.842,25.886,23.983,32.856,25.353Zm1.433-14.731c2.076,5.971,7.548,9.977,11.04,15.129C44.569,20.341,39.591,14.505,34.289,10.622ZM29.3,15.165C34.1,19.228,37.678,24,44.624,26.821,40.327,22.466,36.389,17.9,29.3,15.165ZM44.851,47.876c3.714-3.8,8.931-8.649,11.482-16.243C51.222,34.821,47.677,40.725,44.851,47.876ZM61.746,25.524c-1.174-7.488-12.773-11.811-17.77-18.189C45.787,15.777,51.767,21.807,61.746,25.524ZM45.674,5.69c1.264,3.623,6.947,6.389,10.841,9.618C60.427,18.55,62.57,22.9,64.273,27.04,67.1,16.025,54.781,10.906,45.674,5.69ZM68.321,8.808c-0.82,8.531,3.188,17.136,8.446,23.254C76.862,23.95,72.278,15.679,68.321,8.808ZM75.8,13.749c-1.173,6.639,1.565,13.88,3.492,19.828C83.538,26.476,77.472,19.634,75.8,13.749Zm56.771,27.289c-4.4,8.028-3.4,17.8-5.543,26.558C132.1,61.526,133.542,50.509,132.574,41.038Zm-9.709-.958c0.291,9.11-1.363,17.588,2.334,27.8C125.713,59.028,126.8,50.363,122.865,40.08ZM81.394,42.956c-7.937-.947-14.951,4.679-22.608,6.128C65.828,50.762,75.8,47.614,81.394,42.956ZM52.81,47.906c9.654,0.288,18.735-5.387,28.04-7.616C68.4,35.314,60.372,42.53,52.81,47.906ZM94.927,22.768C98.677,36.313,110.1,44.975,115.379,53.8,117.385,44.7,103.7,26.994,94.927,22.768ZM113.3,56.18C106.914,44.5,98.365,39.52,92.594,25.938,89.269,37.846,102.667,55.918,113.3,56.18Zm1.1,6.025c-3.914-4.473-12.517-5.992-17.141-11.644A36.358,36.358,0,0,1,94.453,46.6a10.38,10.38,0,0,0-5.1-3.617c-4.145-1.3-7.727,1.736-10.952,4.15a8.956,8.956,0,0,0,1.667,1.55c3.546,1.98,6.8,4.905,8.31,7.828a5.919,5.919,0,0,0,.311-4.819c-0.606-1.162-1.931-1.185-1.187-2.724,0.348-.719,1.664-0.509,1.991.008,0.538,0.851.06,1.649,0.022,2.732-0.067,1.964.339,3.167-.431,5.693A5.061,5.061,0,0,1,91.5,59.086c4.366,2.29,5.956,3.357,9.41,4.472,2.854,0.921,8.05,1.064,12.3,2.491a29.45,29.45,0,0,1,5.833,2.985A41.484,41.484,0,0,0,114.4,62.205Zm-11.464,8.508c4.528,6.649,14.472,8.216,22.36,8.969C120.534,73.758,110.1,73.7,102.938,70.714Zm40.236,14.31c6.9-8.531.3-25.2,2.309-36.763C138.178,58.4,137.5,70.687,143.174,85.023Zm5.718-36.533c-2.663,4.877-.129,13.672.178,20.993,0.309,7.353-2.282,13.878-5.076,19.73C158.552,81.558,152.115,63.344,148.892,48.49Zm18.586,27.374c-9.949,7.4-15.3,20.064-16.773,31.656C159.5,99.748,163.936,86.789,167.478,75.864Zm1.944,12.842c-8.261,5.184-13.379,15.157-17.9,23C163.255,109.377,164.722,96.213,169.422,88.706Zm-58.92,8.44c9.039,10.66,23.923,14.912,35.326,22.753C139.108,101.678,123.594,100.057,110.5,97.146ZM143.5,123.071c-6.67-9.453-19.5-11.531-28.47-18.357C120.044,113.914,133.081,121.579,143.5,123.071Z"/>
</svg>
