<svg xmlns="http://www.w3.org/2000/svg" width="16" height="16" viewBox="0 0 16 16">
  <metadata><?xpacket begin="﻿" id="W5M0MpCehiHzreSzNTczkc9d"?>
<x:xmpmeta xmlns:x="adobe:ns:meta/" x:xmptk="Adobe XMP Core 5.6-c138 79.159824, 2016/09/14-01:09:01        ">
   <rdf:RDF xmlns:rdf="http://www.w3.org/1999/02/22-rdf-syntax-ns#">
      <rdf:Description rdf:about=""/>
   </rdf:RDF>
</x:xmpmeta>
                                                                                                    
                                                                                                    
                                                                                                    
                                                                                                    
                                                                                                    
                                                                                                    
                                                                                                    
                                                                                                    
                                                                                                    
                                                                                                    
                                                                                                    
                                                                                                    
                                                                                                    
                                                                                                    
                                                                                                    
                                                                                                    
                                                                                                    
                                                                                                    
                                                                                                    
                                                                                                    
                           
<?xpacket end="w"?></metadata>
<defs>
    <style>
      .cls-1 {
        fill: #8eaeba;
      }

      .cls-2 {
        fill: #fff;
        fill-rule: evenodd;
      }
    </style>
  </defs>
  <rect class="cls-1" width="16" height="16"/>
  <path id="_" data-name="" class="cls-2" d="M12.306,8.864L8,12.919,3.686,8.857A3.784,3.784,0,0,1,2.3,6.281a3.094,3.094,0,0,1,.16-1.037,2.013,2.013,0,0,1,.408-0.715A1.96,1.96,0,0,1,3.471,4.1a2.728,2.728,0,0,1,.7-0.225A4.347,4.347,0,0,1,4.9,3.815,2.178,2.178,0,0,1,5.728,4a3.822,3.822,0,0,1,.82.464q0.375,0.279.642,0.522a5.705,5.705,0,0,1,.445.446,0.494,0.494,0,0,0,.728,0,5.705,5.705,0,0,1,.445-0.446q0.267-.243.642-0.522A3.82,3.82,0,0,1,10.272,4,2.178,2.178,0,0,1,11.1,3.815a4.349,4.349,0,0,1,.728.058,2.73,2.73,0,0,1,.7.225,1.962,1.962,0,0,1,.605.432,2.016,2.016,0,0,1,.408.715,3.1,3.1,0,0,1,.16,1.037,3.8,3.8,0,0,1-1.4,2.583h0Zm1.4-5.078a3.622,3.622,0,0,0-2.606-.9,3.022,3.022,0,0,0-.939.156,3.844,3.844,0,0,0-.891.421q-0.412.265-.709,0.5A6.794,6.794,0,0,0,8,4.453,6.816,6.816,0,0,0,7.436,3.96q-0.3-.232-0.709-0.5a3.845,3.845,0,0,0-.891-0.421A3.023,3.023,0,0,0,4.9,2.886a3.621,3.621,0,0,0-2.606.9,3.285,3.285,0,0,0-.943,2.5,3.11,3.11,0,0,0,.174,1,4.337,4.337,0,0,0,.4.878,6.4,6.4,0,0,0,.5.707q0.282,0.345.412,0.475a2.4,2.4,0,0,0,.2.189L7.673,13.9a0.474,0.474,0,0,0,.653,0l4.625-4.353a4.7,4.7,0,0,0,1.7-3.265A3.285,3.285,0,0,0,13.71,3.786Z"/>
</svg>
